<svg xmlns="http://www.w3.org/2000/svg" width="1200" height="900" viewBox="0 0 1200 900" fill="none">
  <rect width="1200" height="900" rx="36" fill="#F8F4FB"/>
  <rect x="54" y="54" width="1092" height="84" rx="22" fill="white"/>
  <rect x="96" y="87" width="170" height="18" rx="9" fill="#1B1B1B"/>
  <rect x="54" y="170" width="1092" height="424" rx="30" fill="url(#paint0_linear_0_2)"/>
  <rect x="110" y="238" width="312" height="30" rx="15" fill="white" fill-opacity="0.88"/>
  <rect x="110" y="286" width="238" height="16" rx="8" fill="white" fill-opacity="0.68"/>
  <rect x="110" y="334" width="188" height="44" rx="22" fill="#1B1B1B"/>
  <rect x="54" y="626" width="524" height="196" rx="24" fill="white"/>
  <rect x="622" y="626" width="524" height="196" rx="24" fill="white"/>
  <rect x="98" y="676" width="200" height="20" rx="10" fill="#1B1B1B"/>
  <rect x="98" y="716" width="360" height="16" rx="8" fill="#DDD7E8"/>
  <rect x="666" y="676" width="162" height="20" rx="10" fill="#1B1B1B"/>
  <rect x="666" y="716" width="322" height="16" rx="8" fill="#E8E3F1"/>
  <defs>
    <linearGradient id="paint0_linear_0_2" x1="600" y1="170" x2="600" y2="594" gradientUnits="userSpaceOnUse">
      <stop stop-color="#755DFF"/>
      <stop offset="1" stop-color="#B996FF"/>
    </linearGradient>
  </defs>
</svg>
