<svg xmlns="http://www.w3.org/2000/svg" width="1200" height="1500" viewBox="0 0 1200 1500" fill="none">
  <rect width="1200" height="1500" rx="44" fill="#F6F2EA"/>
  <rect x="72" y="72" width="1056" height="88" rx="24" fill="white"/>
  <rect x="112" y="104" width="182" height="18" rx="9" fill="#1B1B1B"/>
  <rect x="864" y="102" width="160" height="22" rx="11" fill="#FFE2D7"/>
  <rect x="72" y="204" width="1056" height="504" rx="34" fill="url(#paint0_linear_0_1)"/>
  <rect x="130" y="278" width="382" height="32" rx="16" fill="white" fill-opacity="0.92"/>
  <rect x="130" y="332" width="304" height="18" rx="9" fill="white" fill-opacity="0.72"/>
  <rect x="130" y="374" width="246" height="18" rx="9" fill="white" fill-opacity="0.58"/>
  <rect x="72" y="752" width="512" height="296" rx="28" fill="white"/>
  <rect x="616" y="752" width="512" height="296" rx="28" fill="white"/>
  <rect x="112" y="804" width="174" height="22" rx="11" fill="#1B1B1B"/>
  <rect x="112" y="852" width="312" height="16" rx="8" fill="#D9D4CB"/>
  <rect x="112" y="884" width="270" height="16" rx="8" fill="#E7E2D9"/>
  <rect x="654" y="804" width="174" height="22" rx="11" fill="#1B1B1B"/>
  <rect x="654" y="852" width="120" height="120" rx="60" fill="#FFF0E9"/>
  <rect x="798" y="852" width="120" height="120" rx="60" fill="#F4E7FF"/>
  <rect x="942" y="852" width="120" height="120" rx="60" fill="#EAF4EE"/>
  <rect x="72" y="1092" width="1056" height="336" rx="30" fill="white"/>
  <rect x="112" y="1144" width="224" height="24" rx="12" fill="#1B1B1B"/>
  <rect x="112" y="1194" width="976" height="18" rx="9" fill="#E8E2D7"/>
  <rect x="112" y="1230" width="924" height="18" rx="9" fill="#EFE9DE"/>
  <rect x="112" y="1266" width="860" height="18" rx="9" fill="#EFE9DE"/>
  <defs>
    <linearGradient id="paint0_linear_0_1" x1="600" y1="204" x2="600" y2="708" gradientUnits="userSpaceOnUse">
      <stop stop-color="#FF6A37"/>
      <stop offset="1" stop-color="#FF936D"/>
    </linearGradient>
  </defs>
</svg>
